<?xml version="1.0" encoding="utf-8"?>
<!-- Generator: Adobe Illustrator 25.2.1, SVG Export Plug-In . SVG Version: 6.00 Build 0)  -->
<svg version="1.1" id="Layer_1" xmlns="http://www.w3.org/2000/svg" xmlns:xlink="http://www.w3.org/1999/xlink" x="0px" y="0px"
	 viewBox="0 0 500 200" style="enable-background:new 0 0 500 200;" xml:space="preserve">
<style type="text/css">
	.st0{fill:url(#SVGID_1_);}
	.st1{fill:url(#SVGID_2_);}
	.st2{fill:url(#SVGID_3_);}
</style>
<linearGradient id="SVGID_1_" gradientUnits="userSpaceOnUse" x1="307.89" y1="48.63" x2="331.85" y2="48.63">
	<stop  offset="0" style="stop-color:#BB43FF"/>
	<stop  offset="0.986" style="stop-color:#11AAFF"/>
</linearGradient>
<path class="st0" d="M327,11.8c-0.5-0.7-14,8-14.7,8.5l-4.5,3.2l1.7-10l22.3-5.2l-12.1,19.4l-10-1.7l4.5-3.2
	C315,22.5,327.6,12.5,327,11.8z M307.8,24.6l0.9,1.3l5.5-3.9l2.2-1.6c0.4-0.3,6.7-5.3,6.5-5.6s-7,4-7.4,4.3l-2.2,1.6L307.8,24.6z
	 M256.4,61.4l-2.4,1.7l0.9,1.3l2.4-1.7L256.4,61.4z M257.1,60.9l0.9,1.3l50.2-35.9l-0.9-1.3L257.1,60.9z M253.5,63.5l-6.5,4.7
	l-16.6,11.8c-0.4,0.3-7.6,5.4-7.1,6.1c0.5,0.7,7.7-4.5,8.1-4.8l16.1-11.5l7-5L253.5,63.5z M228.5,84c-3.3,2.7-2.9,3.7-2.9,3.7
	s0.5,1,2,1.2c1.6-1.7,3.2-3.5,4.5-5.3c0.2-0.4,0.5-0.8,0.8-1.2c-0.2,0.4-0.5,0.8-0.8,1.2c-0.9,1.7-1.4,3.6-2.4,5.1
	c1.4-0.4,3.2-1.3,5.5-3.1c0.9-1.7,1.3-3.5,1.6-5.1c0.5,1.7-0.8,3.2-1.1,4.7c0.4-0.3,0.8-0.6,1.1-0.9c0.8-0.7,1.6-1.4,2.3-2.1
	c0.6-1.4,0.9-2.8,1.4-4.2c0.1-0.6,0.3-1.1,0.6-1.5c-0.2,0.5-0.4,1-0.6,1.5c-0.2,1-0.1,2.1-0.3,3.2c1.3-1.3,2.5-2.6,3.5-3.8
	c0.3-0.8,0.5-1.6,0.8-2.4c-0.1,0.5-0.2,1.1-0.3,1.8c3.5-4.4,4.9-7.5,4.9-7.5s-17.1,12.5-17.9,12.8C230.5,82.2,228.5,84,228.5,84z
	 M232.9,82.4c-0.3,0.3-0.6,0.7-0.8,1.2C232.4,83.1,232.7,82.8,232.9,82.4z M224.7,77.1c1.3,0,2.7-0.1,4-0.8c0.2-0.1,0.4-0.2,0.5-0.3
	c-0.2,0.1-0.4,0.2-0.5,0.3c-1.5,0.9-3.2,1.4-4.9,1.7c-0.9,0.9-1.3,1.7-1.6,2.4c0.5-0.2,1.1-0.4,1.6-0.5c0.5-0.3,1.1-0.5,1.7-0.4
	c-0.5,0.1-1.1,0.2-1.7,0.4c-0.6,0.3-1.2,0.8-1.8,1.2c-0.3,1.4,0.5,2.2,0.5,2.2s0.9,0.7,4.4-1.6c0,0,2.4-1.3,2.9-2S247.7,67,247.7,67
	s-2.7,0.2-6.9,1.6c0.4,0.2,0.8,0.4,1.3,0.1c-0.8,1.1-1.7,0.7-2.6,0.4c-1.2,0.4-2.5,0.9-3.9,1.6c0.7,0.1,1.3,0.3,1.9,0.4
	c-1,0.7-2.2,0.4-3.3,0.2c-1.4,0.7-2.9,1.5-4.5,2.4c1.4-0.1,2.9-0.3,4.3-0.1c-1.9,0.1-3.7,1-5.6,0.9
	C226.7,75.4,225.6,76.3,224.7,77.1z M229.2,76c-0.2,0.1-0.4,0.2-0.5,0.3C228.9,76.2,229.1,76.1,229.2,76z"/>
<linearGradient id="SVGID_2_" gradientUnits="userSpaceOnUse" x1="191.3354" y1="139.505" x2="304.121" y2="139.505" gradientTransform="matrix(1 0 0 -1 0 202)">
	<stop  offset="0" style="stop-color:#BB43FF"/>
	<stop  offset="0.986" style="stop-color:#11AAFF"/>
</linearGradient>
<path class="st1" d="M300.4,34.7L300.4,34.7c2.5,4.4,3.9,9.6,3.7,15c-0.4,15.8-13.7,28.3-29.5,28.3l0,0c-2.5,0-4.8-1.4-5.9-3.6
	l-2.9-5.8h8.9c10.6,0,19.5-8.2,20-18.8c0-0.8,0-1.6,0-2.4C294.2,42.5,296.3,37.6,300.4,34.7z M275,29.4c2.5,0,4.9,0.5,7.1,1.3
	c4.6,1.8,9.8,1,13.9-1.9l0,0c-5.3-5.5-12.7-8.9-21-8.9h-33.6l4.7,9.5H275z M250.6,50.6l-16.1-30.7l-42.9,81.8
	c-0.8,1.5,0.3,3.4,2,3.4h2.6c3.5,0,6.8-2,8.3-5.2l29.9-59.8l10.1,20.3l0,0C249.7,60.5,252.9,55.1,250.6,50.6z M260,68.6L260,68.6
	c-5.2,0-8.6,5.5-6.2,10.1l10.6,21.2c1.6,3.2,4.8,5.2,8.3,5.2h2.6c1.7,0,2.8-1.8,2-3.4L260,68.6z"/>
<linearGradient id="SVGID_3_" gradientUnits="userSpaceOnUse" x1="17.49" y1="157.6271" x2="482.51" y2="157.6271">
	<stop  offset="0" style="stop-color:#BB43FF"/>
	<stop  offset="0.986" style="stop-color:#11AAFF"/>
</linearGradient>
<path class="st2" d="M19.5,190.3c-1.3-1.4-2-3.1-2-5.2c0-1.6,0.4-3.2,1.2-4.9l20.9-48.6c1-2.3,2.8-3.5,5.3-3.5
	c2.5,0,4.2,1.2,5.3,3.5l20.9,48.6c0.7,1.7,1.1,3.3,1.1,4.8c0,2.1-0.7,3.9-2,5.3c0,0,0,0,0,0c-2.1,2.2-5.9,1.5-7.2-1.4l-6-13.8H32.6
	l-6,13.8C25.4,191.8,21.6,192.6,19.5,190.3C19.5,190.3,19.5,190.3,19.5,190.3z M53.7,165.8l-10.5-26.2l-1,0.4l2.1,5.1L36,165.8H53.7
	z M150.1,188.6c-4.1-2-7.3-4.8-9.6-8.4c-2.3-3.6-3.4-7.6-3.4-12.2v-17.8c0-4.6,1.1-8.6,3.4-12.1s5.4-6.3,9.5-8.2c4.1-2,8.7-3,13.8-3
	c5.2,0,9.9,0.8,13.9,2.4c4,1.6,7.2,3.8,9.4,6.7c2.2,2.9,3.4,6.1,3.4,9.8c0,2.1-0.7,3.7-2.1,4.9s-3.2,1.8-5.6,1.8c0,0,0,0,0,0
	c-1.7,0-3-1.4-3-3.1c0-0.4,0-0.8,0-1.3c0-3.4-1.5-6.2-4.5-8.4c-3-2.2-6.8-3.2-11.6-3.2c-4.7,0-8.5,1.3-11.4,3.9
	c-2.9,2.6-4.4,5.9-4.4,10V168c0,4.1,1.5,7.5,4.5,10.1s6.9,3.9,11.7,3.9c4.8,0,8.6-1.1,11.6-3.2c3-2.1,4.5-4.9,4.5-8.3
	c0-0.4,0-0.8,0-1.2c-0.1-1.6,1.2-3,2.9-3c0,0,0,0,0,0c2.3,0,4.2,0.6,5.6,1.9c1.4,1.3,2.1,3,2.1,5.1c0,3.6-1.1,6.7-3.4,9.5
	s-5.4,4.9-9.5,6.5c-4.1,1.6-8.7,2.3-13.9,2.3C158.9,191.6,154.2,190.6,150.1,188.6z M219.9,138.3h-21.9c0-6.3,2.9-9.5,8.8-9.5h45.8
	c0,3.1-0.7,5.5-2.2,7.1s-3.6,2.4-6.5,2.4h-13.1v46.2c0,2.6-0.9,4.7-2.8,6.1c0,0,0,0-0.1,0c-3.3,2.5-8,0-8-4.1V138.3z M260.6,136.3
	c0-2.6,1-4.7,2.8-6.1c0,0,0,0,0.1,0c3.3-2.4,7.9,0,7.9,4.1v50.2c0,2.6-0.9,4.7-2.8,6.2c0,0,0,0-0.1,0c-3.2,2.5-8,0.1-8-4V136.3z
	 M292.6,188.6c-4.1-2-7.3-4.8-9.6-8.4c-2.3-3.6-3.4-7.6-3.4-12.2v-17.8c0-4.6,1.1-8.6,3.4-12.1s5.4-6.3,9.5-8.2c4.1-2,8.7-3,13.8-3
	c5.2,0,9.9,0.8,13.9,2.4c4,1.6,7.2,3.8,9.4,6.7c2.2,2.9,3.4,6.1,3.4,9.8c0,2.1-0.7,3.7-2.1,4.9s-3.2,1.8-5.6,1.8c0,0,0,0,0,0
	c-1.7,0-3-1.4-3-3.1c0-0.4,0-0.8,0-1.3c0-3.4-1.5-6.2-4.5-8.4c-3-2.2-6.8-3.2-11.6-3.2c-4.7,0-8.5,1.3-11.5,3.9
	c-3,2.6-4.4,5.9-4.4,10V168c0,4.1,1.5,7.5,4.5,10.1s6.9,3.9,11.7,3.9c4.8,0,8.6-1.1,11.6-3.2c3-2.1,4.5-4.9,4.5-8.3
	c0-0.4,0-0.8,0-1.2c0-1.6,1.2-3,2.9-3c0,0,0,0,0,0c2.3,0,4.2,0.6,5.6,1.9c1.4,1.3,2.1,3,2.1,5.1c0,3.6-1.1,6.7-3.4,9.5
	s-5.4,4.9-9.5,6.5c-4.1,1.6-8.7,2.3-13.9,2.3C301.4,191.6,296.7,190.6,292.6,188.6z M341.5,136.3c0-2.6,1-4.7,2.8-6.1c0,0,0,0,0.1,0
	c3.3-2.4,7.9,0,7.9,4.1v50.2c0,2.6-0.9,4.7-2.8,6.2c0,0,0,0-0.1,0c-3.2,2.5-8,0.1-8-4V136.3z M373.1,188.6c-4-2-7.1-4.8-9.3-8.3
	s-3.4-7.5-3.4-12v-33.1c0-2.7,0.9-4.8,2.8-6.2c0,0,0,0,0.1,0c3.3-2.5,8,0,8,4.1v35.2c0,4.2,1.4,7.6,4.2,10.1
	c2.8,2.5,6.5,3.7,11.1,3.7c4.6,0,8.2-1.3,11-3.8c2.8-2.5,4.2-5.9,4.2-10v-33.1c0-2.7,0.9-4.8,2.8-6.2c0,0,0,0,0.1,0
	c3.3-2.5,8,0,8,4.1v35.2c0,4.4-1.1,8.4-3.4,12c-2.2,3.6-5.4,6.3-9.3,8.3c-4,2-8.4,3-13.4,3C381.6,191.6,377.1,190.6,373.1,188.6z
	 M420.8,135.2c0-2.6,1-4.6,2.9-6.1c0,0,0,0,0.1,0c3.4-2.6,8.3-1.1,9.9,2.8l17.9,44.2l-2,5.1l0.8,0.4l19.3-49.5
	c1.5-4,6.5-5.5,9.9-2.9c0,0,0,0,0.1,0c2,1.5,2.9,3.6,2.9,6.1v51c0,6.8-10.3,7.2-10.6,0.4c0-0.2,0-0.4,0-0.6v-34.6l2.8-7.6l-0.9-0.3
	l-17.8,45c-0.4,0.8-0.9,1.6-1.7,2.1c-0.8,0.6-1.6,0.9-2.6,0.9c-1,0-1.9-0.3-2.8-0.8s-1.4-1.3-1.8-2.2l-17.7-45.1l-0.9,0.4l2.8,7.6
	v34.7c0,0.2,0,0.4,0,0.6c-0.3,6.8-10.6,6.4-10.6-0.4L420.8,135.2L420.8,135.2z M121.1,163.2v-0.4c3-1.4,5.3-3.4,6.8-5.8
	c1.5-2.4,2.2-5.4,2.2-9c0-6-1.8-10.7-5.4-14.2c-3.3-3.2-7.7-4.9-13.3-5.1c3.6-0.3,3.8-1.2,3.8-1.2s0.2-1.1-1-2.1
	c-2.3,0.5-4.6,1-6.8,1.7c-0.4,0.2-0.8,0.4-1.3,0.5c0.4-0.2,0.9-0.3,1.3-0.5c1.7-0.8,3.2-2.2,4.9-2.8c-1.4-0.5-3.3-0.8-6.3-0.7
	c-1.7,0.8-3.1,2.1-4.3,3.3c0.6-1.7,2.5-2.1,3.6-3.2c-0.5,0-1,0.1-1.5,0.1c-1.1,0.1-2.1,0.2-3,0.4c-1.3,0.8-2.4,1.8-3.6,2.6
	c-0.4,0.4-0.9,0.7-1.4,0.9c0.5-0.2,0.9-0.6,1.4-0.9c0.8-0.7,1.3-1.6,2.1-2.4c-1.9,0.3-3.6,0.7-5.1,1.1c-0.7,0.5-1.4,1-2.1,1.5
	c0.4-0.4,0.8-0.8,1.3-1.2c-4.6,1.3-7.4,2.7-8.1,3.1c-1.4,0.1-2.7,0.5-3.7,1.4c-1.1,1-1.6,2.1-1.6,3.5v52.8c0,4.1,4.7,6.5,7.9,4.1
	c0,0,0,0,0.1,0c1.8-1.4,2.8-3.5,2.8-6.2v-17h19.1c5.5,0,8.3,3.2,8.3,9.7v9.4c0,4.1,4.7,6.6,8,4.1c0,0,0,0,0.1,0
	c1.8-1.4,2.8-3.5,2.8-6.2v-7.8c0-3.3-0.7-6.1-2.1-8.3C125.8,166.1,123.8,164.4,121.1,163.2z M116.7,155.4c-1.7,1.8-4.1,2.7-7.1,2.7
	H91v-20h18.6c6.4,0,9.7,3.3,9.7,9.9C119.2,151.2,118.4,153.6,116.7,155.4z"/>
</svg>
